<svg width="27" height="51" viewBox="0 0 27 51" fill="none" xmlns="http://www.w3.org/2000/svg">
<path d="M24.0772 3.37362H18.5624V0.0361328H8.43748V3.37362H2.92274C1.31118 3.37362 0 4.67024 0 6.26389V47.2082C0 48.8019 1.31118 50.0985 2.92274 50.0985H24.0772C25.6887 50.0985 26.9999 48.8019 26.9999 47.2082V6.26389C26.9999 4.67024 25.6887 3.37362 24.0772 3.37362ZM10.125 1.70488H16.875V3.37362H10.125V1.70488ZM25.3124 47.2082C25.3124 47.8824 24.7589 48.4297 24.0772 48.4297H2.92274C2.24099 48.4297 1.6875 47.8824 1.6875 47.2082V6.26389C1.6875 5.58972 2.24099 5.04237 2.92274 5.04237H8.43748H18.5624H24.0772C24.7589 5.04237 25.3124 5.58972 25.3124 6.26389V47.2082Z" fill="white"/>
<rect x="4.5" y="45.5986" width="11.25" height="18.5624" rx="1" transform="rotate(-90 4.5 45.5986)" fill="white"/>
<rect x="4.5" y="32.0986" width="11.25" height="18.5624" rx="1" transform="rotate(-90 4.5 32.0986)" fill="white"/>
<rect x="4.5" y="18.5986" width="11.25" height="18.5624" rx="1" transform="rotate(-90 4.5 18.5986)" fill="white"/>
<path d="M18.9137 23.1163H16.5934V14.3258C16.6035 14.1336 16.54 13.9451 16.4109 13.7936C16.1162 13.4484 15.4333 13.4513 15.1409 13.7965C15.1208 13.8202 15.1022 13.8453 15.0852 13.8727L7.42833 25.6843C7.2806 25.9127 7.27364 26.1988 7.41054 26.4331C7.54666 26.6674 7.80499 26.8123 8.08574 26.8123H11.1794L11.181 36.3694H11.1818C11.1825 36.5431 11.2413 36.7235 11.348 36.855C11.4942 37.0376 11.7572 37.1611 11.9977 37.1611C12.2336 37.1611 12.4896 37.0428 12.6358 36.8669C12.6667 36.8299 12.693 36.7907 12.7162 36.7493L19.5989 24.1985C19.725 23.9694 19.7157 23.6944 19.5757 23.4734C19.4357 23.2523 19.1844 23.1163 18.9137 23.1163Z" fill="#272953"/>
</svg>
