<svg width="39" height="38" viewBox="0 0 39 38" fill="none" xmlns="http://www.w3.org/2000/svg">
<path d="M17.3962 18.6826H21.2621V21.2598H17.3962V18.6826Z" fill="white"/>
<path d="M20.6177 12.8833C20.6177 13.595 20.0408 14.1719 19.3291 14.1719C18.6175 14.1719 18.0405 13.595 18.0405 12.8833C18.0405 12.1717 18.6175 11.5947 19.3291 11.5947C20.0408 11.5947 20.6177 12.1717 20.6177 12.8833Z" fill="white"/>
<path d="M12.8862 22.5482C12.8862 23.6157 13.7517 24.4811 14.8191 24.4811H23.8394C24.9068 24.4811 25.7723 23.6157 25.7723 22.5482V8.37354H12.8862V22.5482ZM23.1951 12.2394H24.4837V13.528H23.1951V12.2394ZM19.3293 10.3064C20.7525 10.3064 21.9065 11.4604 21.9065 12.8837C21.9065 14.3069 20.7525 15.4609 19.3293 15.4609C17.906 15.4609 16.7521 14.3069 16.7521 12.8837C16.7521 11.4604 17.906 10.3064 19.3293 10.3064ZM16.1078 18.0381C16.1078 17.6823 16.3962 17.3938 16.7521 17.3938H21.9065C22.2623 17.3938 22.5508 17.6823 22.5508 18.0381V21.9039C22.5508 22.2597 22.2623 22.5482 21.9065 22.5482H16.7521C16.3962 22.5482 16.1078 22.2597 16.1078 21.9039V18.0381ZM14.1748 12.2394H15.4634V13.528H14.1748V12.2394Z" fill="white"/>
<path d="M11.9195 3.7447C11.9299 3.73841 11.9381 3.72929 11.9491 3.72362C12.0079 3.69311 12.067 3.66825 12.1256 3.63837C12.2907 3.55594 12.4575 3.47603 12.6251 3.39864C12.7312 3.34988 12.8375 3.3008 12.9473 3.25392C13.1103 3.18282 13.2757 3.11739 13.4418 3.05164C13.5554 3.00633 13.668 2.95946 13.7822 2.91699C13.9556 2.85249 14.1315 2.79586 14.3073 2.73766C14.553 2.65744 14.8003 2.58256 15.0488 2.51367C15.1564 2.48378 15.2628 2.44917 15.371 2.42526C15.5399 2.38216 15.7098 2.34473 15.88 2.30729C15.9955 2.28212 16.1106 2.25695 16.2267 2.23462C16.3897 2.20221 16.5533 2.17012 16.7184 2.14621C16.8509 2.1245 16.9843 2.105 17.1177 2.08707C17.2683 2.06567 17.4187 2.04585 17.5688 2.02887C17.7368 2.01093 17.9057 1.99741 18.0747 1.98451C18.1964 1.97475 18.3175 1.96343 18.4393 1.95619C18.7309 1.94015 19.0289 1.9304 19.329 1.9304C19.6291 1.9304 19.927 1.94015 20.2234 1.95619C20.3452 1.96343 20.4663 1.97475 20.588 1.98451C20.7567 1.99741 20.9256 2.01093 21.0936 2.02887C21.2452 2.04585 21.3959 2.0663 21.5447 2.08707C21.6787 2.105 21.8115 2.1245 21.9443 2.14621C22.1085 2.17327 22.2727 2.20221 22.4357 2.23462C22.5518 2.25695 22.6672 2.28212 22.7824 2.30729C22.9526 2.34473 23.1228 2.38216 23.2914 2.42526C23.399 2.45232 23.5053 2.48378 23.6135 2.51367C23.8627 2.58225 24.1109 2.65744 24.3579 2.73892C24.5325 2.79649 24.7077 2.85375 24.8804 2.91699C24.9943 2.95946 25.1079 3.00633 25.2212 3.05164C25.3873 3.11581 25.5524 3.18345 25.7154 3.25392C25.823 3.3008 25.9293 3.34988 26.0376 3.39864C26.2049 3.47603 26.372 3.55594 26.5368 3.63837C26.5953 3.66825 26.6548 3.69311 26.7133 3.72362C26.7243 3.72929 26.7328 3.73841 26.7429 3.7447C31.3034 6.11585 34.4626 10.5159 35.2516 15.5948L37.2927 16.4112C36.4515 7.11755 28.6607 0 19.329 0C9.99727 0 2.20648 7.11755 1.36523 16.4112L3.40637 15.5948C4.19633 10.5149 7.35745 6.1146 11.9195 3.7447Z" fill="white"/>
<path d="M22.3989 30.9243H16.2597C16.0156 30.9234 15.7919 31.0618 15.6837 31.2808L15.1917 32.2652C17.8934 33.0545 20.7651 33.0545 23.4669 32.2652L22.9749 31.2808C22.8667 31.0618 22.643 30.9234 22.3989 30.9243Z" fill="white"/>
<path d="M25.7723 4.69437L25.7569 4.68588C25.5276 4.57514 25.2947 4.47132 25.0616 4.37285C24.9471 4.32377 24.8298 4.28067 24.7137 4.23505C24.5976 4.18912 24.4752 4.14099 24.3547 4.09726C24.2106 4.04503 24.0643 3.99659 23.9181 3.94908C23.8252 3.91856 23.7318 3.88459 23.6384 3.85942C23.4804 3.81097 23.3213 3.76661 23.1617 3.72351C23.0765 3.70086 22.9915 3.67821 22.9038 3.65902C22.7402 3.61781 22.576 3.57974 22.4095 3.54419C22.3227 3.52563 22.2359 3.50895 22.1481 3.49197C21.9851 3.4605 21.8222 3.42779 21.6576 3.40451C21.5573 3.38846 21.456 3.37556 21.355 3.36203C21.203 3.34064 21.0508 3.32019 20.8976 3.3032C20.7617 3.28905 20.6251 3.28024 20.4883 3.26923C20.3659 3.2601 20.2448 3.24783 20.1224 3.24154C19.8609 3.22676 19.5961 3.21826 19.3293 3.21826C19.0625 3.21826 18.7976 3.22676 18.5336 3.24028C18.4113 3.24658 18.2901 3.25885 18.1684 3.26797C18.0315 3.27898 17.8944 3.28779 17.7585 3.30195C17.6053 3.31893 17.453 3.33938 17.301 3.36078C17.1997 3.3743 17.0987 3.3872 16.9981 3.40325C16.8339 3.42904 16.6709 3.45925 16.5079 3.49071C16.4202 3.5077 16.3333 3.52437 16.2462 3.54293C16.0801 3.57848 15.9158 3.61655 15.7523 3.65776C15.667 3.67821 15.5821 3.70086 15.4943 3.72225C15.3345 3.76535 15.1721 3.80971 15.0177 3.85816C14.9236 3.88648 14.8308 3.91731 14.7373 3.94751C14.5917 3.99533 14.4454 4.04378 14.301 4.09569C14.1805 4.13973 14.0616 4.18723 13.9423 4.2338C13.8231 4.28004 13.7089 4.32314 13.5944 4.37159C13.361 4.47006 13.1285 4.57388 12.8991 4.68462L12.8862 4.69437V7.08409H25.7723V4.69437ZM21.2622 5.79548H17.3964V4.50687H21.2622V5.79548Z" fill="white"/>
<path d="M24.1272 30.7038L24.6988 31.8462C29.9492 29.8072 33.5888 24.9671 34.0897 19.3571C34.5908 13.7471 31.8667 8.33817 27.0608 5.40137V22.5481C27.0586 24.3265 25.6178 25.7674 23.8393 25.7696H14.8191C13.0406 25.7674 11.5997 24.3265 11.5975 22.5481V5.40137C6.79169 8.33817 4.06756 13.7471 4.56872 19.3571C5.06956 24.9671 8.70919 29.8072 13.9596 31.8462L14.5312 30.7038C14.8568 30.0476 15.5269 29.6332 16.2596 29.6354H22.3988C23.1315 29.6332 23.8016 30.0476 24.1272 30.7038Z" fill="white"/>
<path d="M37.3645 17.8276L35.4033 17.043C35.4231 17.3724 35.4367 17.7033 35.4367 18.0377C35.4285 24.6343 31.4047 30.5608 25.2766 33.0024L26.1446 34.7374C32.9268 31.9626 37.3611 25.3658 37.3696 18.0377C37.3696 17.9676 37.3652 17.8981 37.3645 17.8276Z" fill="white"/>
<path d="M3.22124 18.0377C3.22124 17.7033 3.23477 17.3724 3.25459 17.043L1.29336 17.8276C1.29336 17.8981 1.28833 17.9676 1.28833 18.0377C1.29682 25.3658 5.73113 31.9626 12.5133 34.7374L13.3813 33.0024C7.25318 30.5608 3.22942 24.6343 3.22124 18.0377Z" fill="white"/>
<path d="M19.3292 34.1458C17.7278 34.1464 16.1356 33.9077 14.6051 33.437L13.7314 35.1843C17.3682 36.376 21.2901 36.376 24.9269 35.1843L24.0532 33.437C22.5227 33.9077 20.9305 34.1464 19.3292 34.1458Z" fill="white"/>
<path d="M1.28861 31.5684H0C0.00346062 34.7694 2.59767 37.3636 5.79874 37.3671V36.0785C3.30929 36.0753 1.29175 34.0578 1.28861 31.5684Z" fill="white"/>
<path d="M3.86551 31.5684H2.5769C2.57911 33.3468 4.01998 34.7877 5.79842 34.7899V33.5013C4.73098 33.5013 3.86551 32.6358 3.86551 31.5684Z" fill="white"/>
<path d="M37.3693 31.5684C37.3661 34.0578 35.3486 36.0753 32.8591 36.0785V37.3671C36.0602 37.3636 38.6544 34.7694 38.6579 31.5684H37.3693Z" fill="white"/>
<path d="M32.8591 33.5013V34.7899C34.6376 34.7877 36.0784 33.3468 36.0807 31.5684H34.792C34.792 32.6358 33.9266 33.5013 32.8591 33.5013Z" fill="white"/>
<circle cx="19.3695" cy="16.39" r="13.4096" fill="white"/>
<path d="M15.8049 20.7865C17.0786 20.7865 18.1112 19.7539 18.1112 18.4801C18.1112 17.2064 17.0786 16.1738 15.8049 16.1738C14.5311 16.1738 13.4985 17.2064 13.4985 18.4801C13.4985 19.7539 14.5311 20.7865 15.8049 20.7865Z" fill="#16113A"/>
<path d="M20.0409 20.5629C20.0947 20.4399 20.1562 20.3169 20.21 20.1785L20.2484 20.0555C20.296 19.9127 20.381 19.7853 20.4946 19.6866C20.6082 19.5879 20.7462 19.5215 20.8942 19.4943L22.7239 19.2636V17.6953L20.8942 17.4647C20.7488 17.4449 20.612 17.3847 20.4992 17.2909C20.3864 17.1971 20.3021 17.0736 20.2561 16.9343C20.2004 16.7489 20.1284 16.5688 20.0409 16.3961C19.978 16.2685 19.9526 16.1256 19.9676 15.9841C19.9825 15.8426 20.0373 15.7083 20.1254 15.5966L21.2555 14.1436L20.1408 13.0289L18.6955 14.1513C18.5838 14.2421 18.4484 14.2991 18.3054 14.3154C18.1624 14.3318 18.0176 14.3068 17.8883 14.2436C17.7156 14.156 17.5356 14.084 17.3502 14.0283C17.2113 13.9839 17.0879 13.9012 16.994 13.7896C16.9002 13.6781 16.8397 13.5423 16.8197 13.3979L16.566 11.5605H15.0208L14.7902 13.3902C14.7704 13.5356 14.7101 13.6725 14.6163 13.7853C14.5226 13.8981 14.399 13.9823 14.2597 14.0283C14.0743 14.084 13.8942 14.156 13.7216 14.2436C13.5939 14.3064 13.4511 14.3318 13.3096 14.3168C13.1681 14.3019 13.0337 14.2472 12.922 14.159L11.4691 13.0289L10.3543 14.1436L11.4844 15.5966C11.5726 15.7083 11.6273 15.8426 11.6423 15.9841C11.6572 16.1256 11.6318 16.2685 11.569 16.3961C11.4815 16.5688 11.4095 16.7489 11.3537 16.9343C11.3077 17.0736 11.2235 17.1971 11.1107 17.2909C10.9979 17.3847 10.861 17.4449 10.7157 17.4647L8.88599 17.6953V19.2636L10.7157 19.4943C10.861 19.5141 10.9979 19.5743 11.1107 19.6681C11.2235 19.7619 11.3077 19.8854 11.3537 20.0247C11.4095 20.2101 11.4815 20.3902 11.569 20.5629C11.6318 20.6905 11.6572 20.8334 11.6423 20.9748C11.6273 21.1163 11.5726 21.2507 11.4844 21.3624L10.3543 22.8154L11.4691 23.9301L12.922 22.8C13.0337 22.7118 13.1681 22.6571 13.3096 22.6421C13.4511 22.6272 13.5939 22.6526 13.7216 22.7154C13.8942 22.8029 14.0743 22.875 14.2597 22.9307C14.399 22.9767 14.5226 23.0609 14.6163 23.1737C14.7101 23.2865 14.7704 23.4234 14.7902 23.5688L15.0208 25.3984H16.5891L16.8197 23.5688C16.8395 23.4234 16.8997 23.2865 16.9935 23.1737C17.0873 23.0609 17.2109 22.9767 17.3502 22.9307C17.5356 22.875 17.7156 22.8029 17.8883 22.7154C18.016 22.6526 18.1588 22.6272 18.3003 22.6421C18.4418 22.6571 18.5761 22.7118 18.6878 22.8L20.1408 23.9301L21.2555 22.8154L20.1254 21.3624C20.0373 21.2507 19.9825 21.1163 19.9676 20.9748C19.9526 20.8334 19.978 20.6905 20.0409 20.5629ZM15.8049 22.3234C15.0447 22.3234 14.3015 22.0979 13.6694 21.6755C13.0373 21.2532 12.5446 20.6528 12.2537 19.9505C11.9627 19.2481 11.8866 18.4752 12.0349 17.7296C12.1832 16.984 12.5493 16.299 13.0869 15.7615C13.6245 15.2239 14.3094 14.8578 15.055 14.7095C15.8007 14.5612 16.5735 14.6373 17.2759 14.9282C17.9783 15.2192 18.5786 15.7118 19.001 16.344C19.4234 16.9761 19.6488 17.7193 19.6488 18.4795C19.6476 19.4986 19.2422 20.4756 18.5216 21.1962C17.801 21.9168 16.824 22.3221 15.8049 22.3234Z" fill="#16113A"/>
<path d="M21.7397 16.0195L23.5848 16.2578C23.771 16.2803 23.9425 16.3701 24.0671 16.5103C24.1917 16.6505 24.2608 16.8314 24.2613 17.0189V17.5724C24.5544 17.4707 24.8239 17.3108 25.0537 17.1024C25.2834 16.8939 25.4687 16.6412 25.5983 16.3593C25.7279 16.0775 25.7993 15.7723 25.808 15.4622C25.8168 15.1521 25.7628 14.8434 25.6493 14.5547C25.5358 14.266 25.3651 14.0032 25.1474 13.7821C24.9298 13.561 24.6698 13.3861 24.3829 13.2681C24.096 13.15 23.7882 13.0911 23.478 13.0949C23.1678 13.0987 22.8616 13.1652 22.5777 13.2904L22.8237 13.5364C22.9548 13.6695 23.0333 13.8457 23.0446 14.0322C23.0559 14.2188 22.9993 14.4031 22.8852 14.5511L21.7397 16.0195Z" fill="#16113A"/>
<path d="M27.9437 13.8596C27.8879 13.6742 27.8159 13.4941 27.7284 13.3214C27.6656 13.1938 27.6402 13.0509 27.6551 12.9094C27.6701 12.7679 27.7248 12.6336 27.813 12.5219L28.9431 11.0689L27.8283 9.95419L26.3754 11.0843C26.2637 11.1724 26.1293 11.2272 25.9878 11.2421C25.8463 11.2571 25.7035 11.2317 25.5758 11.1689C25.4032 11.0813 25.2231 11.0093 25.0377 10.9536C24.8984 10.9076 24.7748 10.8234 24.681 10.7106C24.5873 10.5977 24.527 10.4609 24.5072 10.3155L24.2766 8.48584H22.7083L22.4777 10.3155C22.4579 10.4609 22.3977 10.5977 22.3039 10.7106C22.2101 10.8234 22.0865 10.9076 21.9472 10.9536C21.7618 11.0093 21.5818 11.0813 21.4091 11.1689C21.2814 11.2315 21.1386 11.2568 20.9971 11.2419C20.8557 11.2269 20.7213 11.1723 20.6096 11.0843L19.1566 9.95419L18.0496 11.0689L18.2571 12.545L19.7332 11.3995C19.8812 11.2854 20.0655 11.2288 20.2521 11.2401C20.4386 11.2514 20.6148 11.3299 20.748 11.461L21.4398 12.1529C21.9163 11.8533 22.4527 11.662 23.0111 11.5925C23.5696 11.523 24.1365 11.5769 24.6719 11.7506C25.2072 11.9242 25.6979 12.2132 26.1092 12.5973C26.5206 12.9814 26.8426 13.4511 27.0525 13.9733C27.2624 14.4954 27.355 15.0573 27.3239 15.6193C27.2929 16.1812 27.1388 16.7294 26.8725 17.2253C26.6063 17.7211 26.2345 18.1524 25.7832 18.4888C25.332 18.8251 24.8125 19.0583 24.2612 19.1718V19.9405C24.2607 20.1281 24.1917 20.309 24.0671 20.4492C23.9425 20.5893 23.7709 20.6791 23.5847 20.7016L21.7397 20.9399L22.8236 22.3237H24.2766L24.5072 20.4941C24.527 20.3487 24.5873 20.2118 24.681 20.099C24.7748 19.9862 24.8984 19.902 25.0377 19.856C25.2231 19.8003 25.4032 19.7282 25.5758 19.6407C25.7039 19.5797 25.8464 19.5552 25.9875 19.5702C26.1286 19.5851 26.2629 19.6388 26.3754 19.7253L27.8283 20.8554L28.9431 19.7407L27.813 18.2877C27.7248 18.176 27.6701 18.0416 27.6551 17.9001C27.6402 17.7586 27.6656 17.6158 27.7284 17.4882C27.8159 17.3155 27.8879 17.1354 27.9437 16.95C27.9897 16.8107 28.0739 16.6872 28.1867 16.5934C28.2995 16.4996 28.4364 16.4394 28.5817 16.4196L30.4114 16.1889V14.6206L28.5817 14.39C28.4364 14.3702 28.2995 14.31 28.1867 14.2162C28.0739 14.1224 27.9897 13.9989 27.9437 13.8596Z" fill="#16113A"/>
</svg>
