<svg width="33" height="32" viewBox="0 0 33 32" fill="none" xmlns="http://www.w3.org/2000/svg">
<path d="M4.52579 9C2.03026 9 0 6.98131 0 4.5C0 2.01869 2.03026 0 4.52579 0C7.02132 0 9.05158 2.01869 9.05158 4.5C9.05158 6.98131 7.02132 9 4.52579 9ZM4.52579 2C3.13939 2 2.01146 3.1215 2.01146 4.5C2.01146 5.8785 3.13939 7 4.52579 7C5.91219 7 7.04011 5.8785 7.04011 4.5C7.04011 3.1215 5.91219 2 4.52579 2Z" fill="white"/>
<path d="M4.52579 20.5C2.03026 20.5 0 18.4813 0 16C0 13.5187 2.03026 11.5 4.52579 11.5C7.02132 11.5 9.05158 13.5187 9.05158 16C9.05158 18.4813 7.02132 20.5 4.52579 20.5ZM4.52579 13.5C3.13939 13.5 2.01146 14.6215 2.01146 16C2.01146 17.3785 3.13939 18.5 4.52579 18.5C5.91219 18.5 7.04011 17.3785 7.04011 16C7.04011 14.6215 5.91219 13.5 4.52579 13.5Z" fill="white"/>
<path d="M4.52579 32C2.03026 32 0 29.9813 0 27.5C0 25.0187 2.03026 23 4.52579 23C7.02132 23 9.05158 25.0187 9.05158 27.5C9.05158 29.9813 7.02132 32 4.52579 32ZM4.52579 25C3.13939 25 2.01146 26.1215 2.01146 27.5C2.01146 28.8785 3.13939 30 4.52579 30C5.91219 30 7.04011 28.8785 7.04011 27.5C7.04011 26.1215 5.91219 25 4.52579 25Z" fill="white"/>
<path d="M27.6575 9H15.5888C13.0932 9 11.063 6.98131 11.063 4.5C11.063 2.01869 13.0932 0 15.5888 0H27.6575C30.1531 0 32.1833 2.01869 32.1833 4.5C32.1833 6.98131 30.1531 9 27.6575 9Z" fill="white"/>
<path d="M27.6575 20.5H15.5888C13.0932 20.5 11.063 18.4813 11.063 16C11.063 13.5187 13.0932 11.5 15.5888 11.5H27.6575C30.1531 11.5 32.1833 13.5187 32.1833 16C32.1833 18.4813 30.1531 20.5 27.6575 20.5Z" fill="white"/>
<path d="M27.6575 32H15.5888C13.0932 32 11.063 29.9813 11.063 27.5C11.063 25.0187 13.0932 23 15.5888 23H27.6575C30.1531 23 32.1833 25.0187 32.1833 27.5C32.1833 29.9813 30.1531 32 27.6575 32Z" fill="white"/>
</svg>
