<svg width="37" height="35" viewBox="0 0 37 35" fill="none" xmlns="http://www.w3.org/2000/svg">
<path d="M26.7403 22.5916C28.4724 20.2397 29.5085 17.3507 29.5085 14.2188C29.5085 6.37883 23.0932 0 15.2083 0C7.32348 0 0.908203 6.37883 0.908203 14.2188C0.908203 22.0588 7.32355 28.4376 15.2084 28.4376C18.3582 28.4376 21.264 27.4073 23.6294 25.6849L32.9978 35L36.1088 31.9068L26.7403 22.5916ZM15.2084 24.0626C9.74914 24.0626 5.30829 19.647 5.30829 14.2188C5.30829 8.79062 9.74914 4.37504 15.2084 4.37504C20.6677 4.37504 25.1085 8.79062 25.1085 14.2188C25.1085 19.647 20.6676 24.0626 15.2084 24.0626Z" fill="white"/>
</svg>
