<svg width="26" height="37" viewBox="0 0 26 37" fill="none" xmlns="http://www.w3.org/2000/svg">
<path d="M24.1941 6.33606C21.8994 2.4609 17.8234 0.0934032 13.2909 0.00292675C13.0974 -0.000975585 12.9027 -0.000975585 12.7091 0.00292675C8.17663 0.0934032 4.1007 2.4609 1.80588 6.33606C-0.539739 10.2971 -0.603915 15.055 1.63418 19.0637L11.0104 35.8573C11.0146 35.8647 11.0188 35.8722 11.0232 35.8795C11.4357 36.5812 12.1747 37 13.0001 37C13.8255 37 14.5645 36.5811 14.977 35.8795C14.9813 35.8722 14.9855 35.8647 14.9897 35.8573L24.3659 19.0637C26.6039 15.055 26.5397 10.2971 24.1941 6.33606ZM13 16.7656C10.0681 16.7656 7.68279 14.4315 7.68279 11.5625C7.68279 8.69351 10.0681 6.35941 13 6.35941C15.9319 6.35941 18.3172 8.69351 18.3172 11.5625C18.3172 14.4315 15.932 16.7656 13 16.7656Z" fill="white"/>
</svg>
