<svg width="36" height="36" viewBox="0 0 36 36" fill="none" xmlns="http://www.w3.org/2000/svg">
<path d="M2.93121 12.9039C4.27793 8.89444 7.1054 5.64939 10.8928 3.7666C14.6803 1.88375 18.9743 1.5885 22.9835 2.93521C26.0497 3.9651 28.7007 5.89342 30.6155 8.45268L28.6246 8.00364L28.162 10.054L33.5211 11.2628L34.7299 5.90365L32.6794 5.44115L32.2874 7.17883C30.1192 4.28663 27.1202 2.10726 23.6528 0.942639C19.1112 -0.582814 14.2472 -0.248324 9.95704 1.88438C5.66697 4.01716 2.46409 7.69297 0.938569 12.2346C-0.203489 15.6348 -0.305293 19.2527 0.644086 22.6974L2.6705 22.1388C1.83274 19.0992 1.92284 15.9058 2.93121 12.9039Z" fill="white"/>
<path d="M35.2397 13.1943L33.2133 13.7529C34.051 16.7925 33.9609 19.9859 32.9526 22.9879C31.6058 26.9973 28.7784 30.2423 24.9909 32.1252C21.2035 34.0082 16.9095 34.3034 12.9002 32.9566C9.83408 31.9268 7.18296 29.9984 5.26823 27.4392L7.25912 27.8882L7.72169 25.8378L2.36257 24.629L1.15381 29.9881L3.20433 30.4506L3.5962 28.7129C5.76443 31.6052 8.76342 33.7844 12.2309 34.9492C14.1064 35.5792 16.0364 35.8919 17.9587 35.8919C20.6913 35.8918 23.4082 35.2595 25.9267 34.0075C30.2169 31.8747 33.4197 28.1989 34.9452 23.6572C36.0873 20.2569 36.1891 16.639 35.2397 13.1943Z" fill="white"/>
<path d="M26.6249 17.95C26.6271 16.4788 26.2553 15.0313 25.5445 13.7433C24.8336 12.4553 23.8071 11.3691 22.5612 10.5868C21.3153 9.80443 19.891 9.35163 18.4221 9.27089C16.9532 9.19016 15.4878 9.48413 14.1637 10.1252C12.8396 10.7663 11.7002 11.7334 10.8524 12.9357C10.0047 14.1381 9.47652 15.5361 9.31747 16.9987C9.15843 18.4612 9.37375 19.9401 9.94321 21.2966C10.5127 22.653 11.4176 23.8425 12.5729 24.7532V22.9095C12.5736 22.3616 12.7915 21.8364 13.1789 21.449C13.5663 21.0616 14.0915 20.8437 14.6394 20.843H21.2521C21.8 20.8437 22.3252 21.0616 22.7126 21.449C23.1 21.8364 23.3179 22.3616 23.3186 22.9095V24.7532C24.3483 23.9431 25.1809 22.91 25.7536 21.7315C26.3263 20.5531 26.6242 19.2602 26.6249 17.95ZM22.492 15.8835C22.492 15.9931 22.4484 16.0982 22.3709 16.1757C22.2934 16.2532 22.1883 16.2968 22.0787 16.2968H13.8128C13.7032 16.2968 13.5981 16.2532 13.5206 16.1757C13.4431 16.0982 13.3995 15.9931 13.3995 15.8835V11.7506C13.3995 11.6409 13.4431 11.5358 13.5206 11.4583C13.5981 11.3808 13.7032 11.3373 13.8128 11.3373H22.0787C22.1883 11.3373 22.2934 11.3808 22.3709 11.4583C22.4484 11.5358 22.492 11.6409 22.492 11.7506V15.8835Z" fill="white"/>
<path d="M14.2263 15.4699H21.6656V12.1636H14.2263V15.4699ZM16.7061 12.9902H18.3593V13.8167H16.7061V12.9902ZM15.0529 12.9902H15.8795V13.8167H15.0529V12.9902Z" fill="white"/>
<path d="M8.66898 15.8833C9.14037 13.7746 10.3161 11.8894 12.0024 10.5384C13.6887 9.18744 15.785 8.45129 17.9458 8.45129C20.1065 8.45129 22.2028 9.18744 23.8891 10.5384C25.5754 11.8894 26.7511 13.7746 27.2225 15.8833H29.3303C28.8473 13.2158 27.4429 10.8027 25.3623 9.06506C23.2817 7.32738 20.657 6.37549 17.9462 6.37549C15.2354 6.37549 12.6106 7.32738 10.53 9.06506C8.44942 10.8027 7.04505 13.2158 6.56201 15.8833H8.66898Z" fill="white"/>
<path d="M14.6398 21.6694C14.3109 21.6694 13.9956 21.8001 13.7631 22.0326C13.5305 22.2651 13.3999 22.5805 13.3999 22.9093V25.3287C14.7639 26.1787 16.3389 26.6292 17.9461 26.6292C19.5533 26.6292 21.1283 26.1787 22.4924 25.3287V22.9093C22.4924 22.5805 22.3617 22.2651 22.1292 22.0326C21.8967 21.8001 21.5813 21.6694 21.2525 21.6694H14.6398ZM17.9461 25.8024C17.6192 25.8024 17.2995 25.7054 17.0277 25.5238C16.7558 25.3421 16.5439 25.0839 16.4188 24.7818C16.2937 24.4798 16.2609 24.1474 16.3247 23.8267C16.3885 23.506 16.546 23.2114 16.7772 22.9802C17.0084 22.749 17.3029 22.5916 17.6236 22.5278C17.9443 22.464 18.2767 22.4967 18.5788 22.6219C18.8808 22.747 19.139 22.9589 19.3207 23.2307C19.5023 23.5026 19.5993 23.8222 19.5993 24.1492C19.5993 24.5876 19.4251 25.0081 19.1151 25.3182C18.8051 25.6282 18.3846 25.8024 17.9461 25.8024Z" fill="white"/>
<path d="M29.4508 16.7104H27.3691C27.5472 18.0526 27.4366 19.4174 27.0446 20.7134C26.6526 22.0093 25.9883 23.2066 25.0961 24.225C24.204 25.2435 23.1045 26.0596 21.8714 26.6187C20.6383 27.1778 19.2999 27.467 17.946 27.467C16.592 27.467 15.2537 27.1778 14.0206 26.6187C12.7875 26.0596 11.688 25.2435 10.7958 24.225C9.90366 23.2066 9.23934 22.0093 8.84734 20.7134C8.45535 19.4174 8.34474 18.0526 8.5229 16.7104H6.44115C6.26608 18.3259 6.43316 19.96 6.93152 21.5066C7.42988 23.0532 8.24835 24.4774 9.33365 25.6867C10.4189 26.896 11.7467 27.8631 13.2306 28.5252C14.7145 29.1873 16.3211 29.5295 17.946 29.5295C19.5709 29.5295 21.1775 29.1873 22.6614 28.5252C24.1452 27.8631 25.473 26.896 26.5583 25.6867C27.6436 24.4774 28.4621 23.0532 28.9605 21.5066C29.4588 19.96 29.6259 18.3259 29.4508 16.7104Z" fill="white"/>
<path d="M17.9454 24.9747C18.4017 24.9747 18.7716 24.6048 18.7716 24.1485C18.7716 23.6922 18.4017 23.3223 17.9454 23.3223C17.4891 23.3223 17.1191 23.6922 17.1191 24.1485C17.1191 24.6048 17.4891 24.9747 17.9454 24.9747Z" fill="white"/>
</svg>
