<svg width="67" height="38" viewBox="0 0 67 38" fill="none" xmlns="http://www.w3.org/2000/svg">
<path d="M62.5333 33.1559L62.5333 25.7753L67 25.7753L67 12.2248L62.5333 12.2248L62.5333 4.84421C62.5333 2.68742 60.798 0.932617 58.6652 0.932617L3.86813 0.932614C1.7353 0.932614 -7.67047e-08 2.68741 -1.70981e-07 4.84421L-1.40852e-06 33.1559C-1.5028e-06 35.3126 1.7353 37.0674 3.86813 37.0674L58.6652 37.0675C60.798 37.0675 62.5333 35.3127 62.5333 33.1559ZM64.7667 14.4832L64.7667 23.5169L62.5333 23.5169L62.5333 14.4832L64.7667 14.4832ZM3.86813 34.809C2.96586 34.809 2.23333 34.0683 2.23333 33.1559L2.23333 4.84421C2.23333 3.93181 2.96587 3.19104 3.86813 3.19104L58.6652 3.19104C59.5675 3.19104 60.3 3.93181 60.3 4.84421L60.3 12.2248L60.3 25.7753L60.3 33.1559C60.3 34.0683 59.5675 34.809 58.6652 34.809L3.86813 34.809Z" fill="white"/>
<rect x="6.02246" y="6.95508" width="15.0562" height="24.8427" rx="1" fill="white"/>
<rect x="24.0898" y="6.95508" width="15.0562" height="24.8427" rx="1" fill="white"/>
<rect x="42.1572" y="6.95508" width="15.0562" height="24.8427" rx="1" fill="white"/>
<path d="M36.1112 26.2454L36.1112 23.1402L47.8758 23.1402C48.133 23.1536 48.3853 23.0687 48.5881 22.8959C49.0501 22.5015 49.0461 21.5875 48.5841 21.1962C48.5525 21.1693 48.5188 21.1445 48.4822 21.1217L32.6744 10.8743C32.3687 10.6766 31.9858 10.6672 31.6722 10.8504C31.3586 11.0326 31.1647 11.3783 31.1647 11.7541L31.1647 15.8945L18.3742 15.8965L18.3742 15.8976C18.1417 15.8986 17.9003 15.9773 17.7242 16.1201C17.4799 16.3158 17.3146 16.6677 17.3146 16.9896C17.3146 17.3053 17.4729 17.6479 17.7084 17.8436C17.7578 17.885 17.8103 17.9202 17.8657 17.9512L34.6628 27.1625C34.9695 27.3313 35.3375 27.3188 35.6333 27.1315C35.9291 26.9441 36.1112 26.6077 36.1112 26.2454Z" fill="#272953"/>
</svg>
