<svg width="882" height="520" viewBox="0 0 882 520" fill="none" xmlns="http://www.w3.org/2000/svg">
<path d="M718 267H813L877.5 331.5" stroke="white" stroke-width="2"/>
<path d="M169 267H74L9.5 331.5" stroke="white" stroke-width="2"/>
<path d="M238.231 306.09L313.659 439.404C313.659 439.404 333.151 472.481 365.461 472.481H521.929C526.359 472.481 530.671 471.536 534.688 469.646C546.146 464.212 569.478 451.04 580.701 429.008L647.21 306.149C647.21 306.149 669.242 272.776 647.21 237.336L574.085 110.933C574.085 110.933 554.888 87.3064 526.536 84.6484H367.646C367.646 84.6484 331.911 87.6018 311.533 119.203L238.29 245.606C238.231 245.546 223.76 280.514 238.231 306.09Z" stroke="white" stroke-opacity="0.5" stroke-width="2" stroke-miterlimit="10"/>
<path d="M676.094 275.848C676.094 275.848 676.271 276.852 676.92 286.48C676.92 286.48 681.823 414.832 588.438 465.039C588.438 465.039 575.385 471.3 564.221 450.804" stroke="white" stroke-width="3" stroke-miterlimit="10"/>
<path d="M586.43 465.866C586.43 465.866 537 517.844 449.986 517.844C354 517.844 300.134 465.629 300.134 465.629" stroke="white" stroke-width="3" stroke-miterlimit="10"/>
<path d="M284.363 387.661H602.969L598.244 396.403H289.324L284.363 387.661Z" stroke="white" stroke-opacity="0.5" stroke-width="2" stroke-miterlimit="10"/>
<path d="M345.733 420.857V437.218C345.733 437.218 345.319 441.943 349.868 441.943C354.416 441.943 367.174 441.943 367.174 441.943C367.174 441.943 372.018 442.357 372.018 437.1C372.018 431.902 372.018 420.857 372.018 420.857C372.018 420.857 372.431 416.545 367.706 416.545C363.04 416.545 350.222 416.545 350.222 416.545C350.222 416.545 345.733 415.541 345.733 420.857Z" stroke="white" stroke-opacity="0.5" stroke-width="2" stroke-miterlimit="10"/>
<path d="M491.51 422.387V438.749C491.51 438.749 491.096 443.474 495.644 443.474C500.193 443.474 512.951 443.474 512.951 443.474C512.951 443.474 517.795 443.888 517.795 438.631C517.795 433.433 517.795 422.387 517.795 422.387C517.795 422.387 518.208 418.075 513.483 418.075C508.816 418.075 495.999 418.075 495.999 418.075C495.999 418.075 491.51 417.071 491.51 422.387Z" stroke="white" stroke-opacity="0.5" stroke-width="2" stroke-miterlimit="10"/>
<path d="M420.516 450.616V464.099C420.516 464.099 419.825 467.994 427.433 467.994C435.041 467.994 456.383 467.994 456.383 467.994C456.383 467.994 464.485 468.334 464.485 464.002C464.485 459.718 464.485 450.616 464.485 450.616C464.485 450.616 465.176 447.062 457.272 447.062C449.466 447.062 428.026 447.062 428.026 447.062C428.026 447.062 420.516 446.235 420.516 450.616Z" stroke="white" stroke-opacity="0.5" stroke-width="2" stroke-miterlimit="10"/>
<path d="M377.924 419.498V439.108C377.924 439.108 378.102 441.885 380.7 441.885C383.299 441.885 391.805 441.885 391.805 441.885C391.805 441.885 394.227 441.412 394.227 439.463C394.227 437.514 394.227 419.026 394.227 419.026C394.227 419.026 394.286 416.427 391.628 416.427C388.97 416.427 380.523 416.427 380.523 416.427C380.523 416.427 377.924 416.604 377.924 419.498Z" stroke="white" stroke-opacity="0.5" stroke-width="2" stroke-miterlimit="10"/>
<path d="M523.5 421.071V440.682C523.5 440.682 523.677 443.458 526.276 443.458C528.875 443.458 537.381 443.458 537.381 443.458C537.381 443.458 539.802 442.985 539.802 441.036C539.802 439.087 539.802 420.599 539.802 420.599C539.802 420.599 539.862 418 537.204 418C534.546 418 526.099 418 526.099 418C526.099 418 523.5 418.177 523.5 421.071Z" stroke="white" stroke-opacity="0.5" stroke-width="2" stroke-miterlimit="10"/>
<path d="M343.548 303.845C343.548 303.845 341.953 319.025 358.728 319.025C375.444 319.025 529.017 319.025 529.017 319.025C529.017 319.025 543.016 317.726 543.016 305.026C543.016 290.26 543.016 198.883 543.016 198.883C543.016 198.883 542.485 186.597 530.73 186.597C515.668 186.597 362.095 186.597 362.095 186.597C362.095 186.597 344.493 185.829 344.493 204.199C344.493 222.569 343.548 303.845 343.548 303.845Z" stroke="white" stroke-width="4" stroke-miterlimit="10"/>
<path d="M404.505 420.975V435.741C404.505 435.741 404.092 441.766 410.53 441.766C416.968 441.766 473.614 441.766 473.614 441.766C473.614 441.766 480.879 442.416 480.879 434.501C480.879 426.586 480.879 421.034 480.879 421.034C480.879 421.034 480.524 415.777 475.622 415.777C470.66 415.777 409.644 415.777 409.644 415.777C409.644 415.777 404.505 415.363 404.505 420.975Z" stroke="white" stroke-opacity="0.5" stroke-width="2" stroke-miterlimit="10"/>
<path d="M683.005 267.874L656.956 268.287L656.838 275.848H676.094L683.005 267.874ZM683.005 267.874C683.005 16.2488 426.418 40.6434 426.418 40.6434C207.576 40.6434 203.5 263.562 203.5 263.562L209.052 271.89C209.052 271.89 207.93 277.206 207.576 286.421C207.576 286.421 202.673 414.773 296.058 464.98C296.058 464.98 310.47 470.473 321.693 449.977" stroke="white" stroke-width="3" stroke-miterlimit="10"/>
<path d="M203.5 263.562H233.211L231.793 272.717L209.052 271.89" stroke="white" stroke-width="3" stroke-miterlimit="10"/>
<path d="M456.325 117.126H430.044C427.116 117.126 424.733 114.743 424.733 111.815V59.1164C424.733 56.1887 427.116 53.8057 430.044 53.8057H456.257C459.185 53.8057 461.568 56.1887 461.568 59.1164V111.815C461.636 114.743 459.253 117.126 456.325 117.126Z" fill="#272953" stroke="white" stroke-opacity="0.6" stroke-width="2" stroke-miterlimit="10"/>
<path d="M473.755 98.9473H465.517C463.474 98.9473 461.772 97.2452 461.772 95.2026V75.6617C461.772 73.6192 463.474 71.917 465.517 71.917H473.755C475.798 71.917 477.5 73.6192 477.5 75.6617V95.2026C477.5 97.3132 475.866 98.9473 473.755 98.9473Z" fill="#272953" stroke="white" stroke-opacity="0.5" stroke-width="2" stroke-miterlimit="10"/>
<path d="M420.988 98.9473H412.75C410.707 98.9473 409.005 97.2452 409.005 95.2026V75.6617C409.005 73.6192 410.707 71.917 412.75 71.917H420.988C423.031 71.917 424.733 73.6192 424.733 75.6617V95.2026C424.733 97.3132 423.031 98.9473 420.988 98.9473Z" fill="#272953" stroke="white" stroke-opacity="0.5" stroke-width="2" stroke-miterlimit="10"/>
<path d="M617.196 295.281H587.367C584.827 295.281 582.76 293.214 582.76 290.674V253.107C582.76 250.567 584.827 248.5 587.367 248.5H617.137C619.677 248.5 621.744 250.567 621.744 253.107V290.674C621.803 293.214 619.736 295.281 617.196 295.281Z" fill="#272953" stroke="white" stroke-width="4" stroke-miterlimit="10"/>
<path d="M648.206 317.076H629.068C625.052 317.076 621.803 313.828 621.803 309.811V233.969C621.803 229.953 625.052 226.704 629.068 226.704H648.206C652.222 226.704 655.471 229.953 655.471 233.969V309.752C655.53 313.769 652.281 317.076 648.206 317.076Z" fill="#272953" stroke="white" stroke-width="4" stroke-miterlimit="10"/>
<path d="M301.146 295.28H271.376C268.836 295.28 266.769 293.213 266.769 290.673V253.107C266.769 250.567 268.836 248.5 271.376 248.5H301.146C303.686 248.5 305.753 250.567 305.753 253.107V290.673C305.753 293.213 303.686 295.28 301.146 295.28Z" fill="#272953" stroke="white" stroke-width="4" stroke-miterlimit="10"/>
<path d="M240.307 226.704H259.444C263.461 226.704 266.71 229.953 266.71 233.969V309.752C266.71 313.769 263.461 317.017 259.444 317.017H240.307C236.29 317.017 233.042 313.769 233.042 309.752V233.969C232.982 229.953 236.29 226.704 240.307 226.704Z" fill="#272953" stroke="white" stroke-width="4" stroke-miterlimit="10"/>
<path d="M209.5 148H114.5L1.5 35M446 25V0.5M695 148H768L881 35" stroke="white" stroke-width="2"/>
</svg>
