<svg width="39" height="38" viewBox="0 0 39 38" fill="none" xmlns="http://www.w3.org/2000/svg">
<path d="M33.5725 18.9958C33.5761 16.5813 32.9622 14.2055 31.7884 12.0916C30.6146 9.97772 28.9194 8.19505 26.8622 6.91108C24.8049 5.62711 22.453 4.88396 20.0274 4.75145C17.6018 4.61894 15.1821 5.10141 12.9956 6.15355C10.8092 7.20569 8.92765 8.79296 7.52783 10.7663C6.128 12.7396 5.25581 15.0342 4.99318 17.4345C4.73056 19.8348 5.08611 22.2621 6.02644 24.4883C6.96677 26.7146 8.46103 28.6667 10.3688 30.1614V27.1355C10.3699 26.2363 10.7298 25.3743 11.3695 24.7385C12.0092 24.1027 12.8765 23.745 13.7811 23.7439H24.7005C25.6052 23.745 26.4725 24.1027 27.1122 24.7385C27.7519 25.3743 28.1117 26.2363 28.1128 27.1355V30.1614C29.8132 28.8319 31.188 27.1363 32.1337 25.2022C33.0794 23.2682 33.5713 21.1461 33.5725 18.9958ZM26.7479 15.6042C26.7479 15.7841 26.676 15.9567 26.548 16.0839C26.42 16.2111 26.2464 16.2825 26.0654 16.2825H12.4162C12.2352 16.2825 12.0616 16.2111 11.9337 16.0839C11.8057 15.9567 11.7338 15.7841 11.7338 15.6042V8.82114C11.7338 8.64124 11.8057 8.46871 11.9337 8.3415C12.0616 8.21429 12.2352 8.14283 12.4162 8.14283H26.0654C26.2464 8.14283 26.42 8.21429 26.548 8.3415C26.676 8.46871 26.7479 8.64124 26.7479 8.82114V15.6042Z" fill="white"/>
<path d="M13.0986 14.926H25.3829V9.49951H13.0986V14.926ZM17.1934 10.8561H19.9232V12.2127H17.1934V10.8561ZM14.4636 10.8561H15.8285V12.2127H14.4636V10.8561Z" fill="white"/>
<path d="M3.92156 15.6044C4.69995 12.1436 6.64142 9.04957 9.42599 6.83231C12.2106 4.61505 15.6721 3.40687 19.2401 3.40687C22.808 3.40687 26.2696 4.61505 29.0541 6.83231C31.8387 9.04957 33.7802 12.1436 34.5586 15.6044H38.0391C37.2415 11.2266 34.9225 7.26613 31.4868 4.4142C28.0512 1.56228 23.717 0 19.2407 0C14.7645 0 10.4303 1.56228 6.99466 4.4142C3.559 7.26613 1.24001 11.2266 0.442383 15.6044H3.92156Z" fill="white"/>
<path d="M13.781 25.1006C13.238 25.1006 12.7173 25.315 12.3333 25.6966C11.9493 26.0782 11.7336 26.5958 11.7336 27.1355V31.1063C13.9861 32.5013 16.5868 33.2407 19.2407 33.2407C21.8946 33.2407 24.4954 32.5013 26.7478 31.1063V27.1355C26.7478 26.5958 26.5321 26.0782 26.1481 25.6966C25.7641 25.315 25.2434 25.1006 24.7004 25.1006H13.781ZM19.2407 31.8837C18.7008 31.8837 18.173 31.7245 17.7241 31.4264C17.2752 31.1283 16.9253 30.7045 16.7187 30.2088C16.512 29.713 16.458 29.1674 16.5633 28.6411C16.6686 28.1148 16.9286 27.6313 17.3104 27.2519C17.6922 26.8724 18.1786 26.614 18.7081 26.5093C19.2377 26.4046 19.7866 26.4584 20.2854 26.6637C20.7842 26.8691 21.2105 27.2169 21.5105 27.663C21.8104 28.1092 21.9705 28.6338 21.9705 29.1704C21.9705 29.89 21.6829 30.5802 21.171 31.089C20.659 31.5978 19.9647 31.8837 19.2407 31.8837Z" fill="white"/>
<path d="M38.2384 16.9614H34.8008C35.095 19.1643 34.9123 21.4041 34.2651 23.5311C33.6178 25.6581 32.5208 27.6231 31.0476 29.2946C29.5743 30.9661 27.7589 32.3055 25.7226 33.2231C23.6864 34.1408 21.4765 34.6155 19.2407 34.6155C17.005 34.6155 14.795 34.1408 12.7588 33.2231C10.7226 32.3055 8.90709 30.9661 7.43386 29.2946C5.96063 27.6231 4.86365 25.6581 4.21637 23.5311C3.56908 21.4041 3.38643 19.1643 3.68063 16.9614H0.243079C-0.0460124 19.6127 0.229888 22.2947 1.05282 24.833C1.87575 27.3713 3.22727 29.7088 5.01939 31.6935C6.81151 33.6782 9.00406 35.2655 11.4543 36.3522C13.9046 37.4388 16.5576 38.0004 19.2407 38.0004C21.9238 38.0004 24.5769 37.4388 27.0271 36.3522C29.4774 35.2655 31.6699 33.6782 33.462 31.6935C35.2542 29.7088 36.6057 27.3713 37.4286 24.833C38.2515 22.2947 38.5275 19.6127 38.2384 16.9614Z" fill="white"/>
<path d="M19.2407 30.5272C19.9945 30.5272 20.6056 29.9198 20.6056 29.1706C20.6056 28.4213 19.9945 27.814 19.2407 27.814C18.4868 27.814 17.8757 28.4213 17.8757 29.1706C17.8757 29.9198 18.4868 30.5272 19.2407 30.5272Z" fill="white"/>
</svg>
