<svg width="871" height="520" viewBox="0 0 871 520" fill="none" xmlns="http://www.w3.org/2000/svg">
<path d="M710 267H805L869.5 331.5" stroke="white" stroke-width="2"/>
<path d="M161 267H66L1.5 331.5" stroke="white" stroke-width="2"/>
<path d="M230.231 306.09L305.659 439.404C305.659 439.404 325.151 472.481 357.461 472.481H513.929C518.359 472.481 522.671 471.536 526.688 469.646C538.146 464.212 561.478 451.04 572.701 429.008L639.21 306.149C639.21 306.149 661.242 272.776 639.21 237.336L566.085 110.933C566.085 110.933 546.888 87.3064 518.536 84.6484H359.646C359.646 84.6484 323.911 87.6018 303.533 119.203L230.29 245.606C230.231 245.546 215.76 280.514 230.231 306.09Z" stroke="white" stroke-opacity="0.5" stroke-width="2" stroke-miterlimit="10"/>
<path d="M668.094 275.848C668.094 275.848 668.271 276.852 668.92 286.48C668.92 286.48 673.823 414.832 580.438 465.039C580.438 465.039 567.385 471.3 556.221 450.804" stroke="white" stroke-width="3" stroke-miterlimit="10"/>
<path d="M578.43 465.866C578.43 465.866 529 517.844 441.986 517.844C346 517.844 292.134 465.629 292.134 465.629" stroke="white" stroke-width="3" stroke-miterlimit="10"/>
<path d="M276.363 387.661H594.969L590.244 396.403H281.324L276.363 387.661Z" stroke="white" stroke-opacity="0.5" stroke-width="2" stroke-miterlimit="10"/>
<path d="M337.733 420.857V437.218C337.733 437.218 337.319 441.943 341.868 441.943C346.416 441.943 359.174 441.943 359.174 441.943C359.174 441.943 364.018 442.357 364.018 437.1C364.018 431.902 364.018 420.857 364.018 420.857C364.018 420.857 364.431 416.545 359.706 416.545C355.04 416.545 342.222 416.545 342.222 416.545C342.222 416.545 337.733 415.541 337.733 420.857Z" stroke="white" stroke-opacity="0.5" stroke-width="2" stroke-miterlimit="10"/>
<path d="M483.51 422.387V438.749C483.51 438.749 483.096 443.474 487.644 443.474C492.193 443.474 504.951 443.474 504.951 443.474C504.951 443.474 509.795 443.888 509.795 438.631C509.795 433.433 509.795 422.387 509.795 422.387C509.795 422.387 510.208 418.075 505.483 418.075C500.816 418.075 487.999 418.075 487.999 418.075C487.999 418.075 483.51 417.071 483.51 422.387Z" stroke="white" stroke-opacity="0.5" stroke-width="2" stroke-miterlimit="10"/>
<path d="M412.516 450.616V464.099C412.516 464.099 411.825 467.994 419.433 467.994C427.041 467.994 448.383 467.994 448.383 467.994C448.383 467.994 456.485 468.334 456.485 464.002C456.485 459.718 456.485 450.616 456.485 450.616C456.485 450.616 457.176 447.062 449.272 447.062C441.466 447.062 420.026 447.062 420.026 447.062C420.026 447.062 412.516 446.235 412.516 450.616Z" stroke="white" stroke-opacity="0.5" stroke-width="2" stroke-miterlimit="10"/>
<path d="M369.924 419.498V439.108C369.924 439.108 370.102 441.885 372.7 441.885C375.299 441.885 383.805 441.885 383.805 441.885C383.805 441.885 386.227 441.412 386.227 439.463C386.227 437.514 386.227 419.026 386.227 419.026C386.227 419.026 386.286 416.427 383.628 416.427C380.97 416.427 372.523 416.427 372.523 416.427C372.523 416.427 369.924 416.604 369.924 419.498Z" stroke="white" stroke-opacity="0.5" stroke-width="2" stroke-miterlimit="10"/>
<path d="M515.5 421.071V440.682C515.5 440.682 515.677 443.458 518.276 443.458C520.875 443.458 529.381 443.458 529.381 443.458C529.381 443.458 531.802 442.985 531.802 441.036C531.802 439.087 531.802 420.599 531.802 420.599C531.802 420.599 531.862 418 529.204 418C526.546 418 518.099 418 518.099 418C518.099 418 515.5 418.177 515.5 421.071Z" stroke="white" stroke-opacity="0.5" stroke-width="2" stroke-miterlimit="10"/>
<path d="M335.548 303.845C335.548 303.845 333.953 319.025 350.728 319.025C367.444 319.025 521.017 319.025 521.017 319.025C521.017 319.025 535.016 317.726 535.016 305.026C535.016 290.26 535.016 198.883 535.016 198.883C535.016 198.883 534.485 186.597 522.73 186.597C507.668 186.597 354.095 186.597 354.095 186.597C354.095 186.597 336.493 185.829 336.493 204.199C336.493 222.569 335.548 303.845 335.548 303.845Z" stroke="white" stroke-width="4" stroke-miterlimit="10"/>
<path d="M396.505 420.975V435.741C396.505 435.741 396.092 441.766 402.53 441.766C408.968 441.766 465.614 441.766 465.614 441.766C465.614 441.766 472.879 442.416 472.879 434.501C472.879 426.586 472.879 421.034 472.879 421.034C472.879 421.034 472.524 415.777 467.622 415.777C462.66 415.777 401.644 415.777 401.644 415.777C401.644 415.777 396.505 415.363 396.505 420.975Z" stroke="white" stroke-opacity="0.5" stroke-width="2" stroke-miterlimit="10"/>
<path d="M675.005 267.874L648.956 268.287L648.838 275.848H668.094L675.005 267.874ZM675.005 267.874C675.005 16.2488 418.418 40.6434 418.418 40.6434C199.576 40.6434 195.5 263.562 195.5 263.562L201.052 271.89C201.052 271.89 199.93 277.206 199.576 286.421C199.576 286.421 194.673 414.773 288.058 464.98C288.058 464.98 302.47 470.473 313.693 449.977" stroke="white" stroke-width="3" stroke-miterlimit="10"/>
<path d="M195.5 263.562H225.211L223.793 272.717L201.052 271.89" stroke="white" stroke-width="3" stroke-miterlimit="10"/>
<path d="M448.325 117.126H422.044C419.116 117.126 416.733 114.743 416.733 111.815V59.1164C416.733 56.1887 419.116 53.8057 422.044 53.8057H448.257C451.185 53.8057 453.568 56.1887 453.568 59.1164V111.815C453.636 114.743 451.253 117.126 448.325 117.126Z" fill="#272953" stroke="white" stroke-opacity="0.6" stroke-width="2" stroke-miterlimit="10"/>
<path d="M465.755 98.9473H457.517C455.474 98.9473 453.772 97.2452 453.772 95.2026V75.6617C453.772 73.6192 455.474 71.917 457.517 71.917H465.755C467.798 71.917 469.5 73.6192 469.5 75.6617V95.2026C469.5 97.3132 467.866 98.9473 465.755 98.9473Z" fill="#272953" stroke="white" stroke-opacity="0.5" stroke-width="2" stroke-miterlimit="10"/>
<path d="M412.988 98.9473H404.75C402.707 98.9473 401.005 97.2452 401.005 95.2026V75.6617C401.005 73.6192 402.707 71.917 404.75 71.917H412.988C415.031 71.917 416.733 73.6192 416.733 75.6617V95.2026C416.733 97.3132 415.031 98.9473 412.988 98.9473Z" fill="#272953" stroke="white" stroke-opacity="0.5" stroke-width="2" stroke-miterlimit="10"/>
<path d="M609.196 295.281H579.367C576.827 295.281 574.76 293.214 574.76 290.674V253.107C574.76 250.567 576.827 248.5 579.367 248.5H609.137C611.677 248.5 613.744 250.567 613.744 253.107V290.674C613.803 293.214 611.736 295.281 609.196 295.281Z" fill="#272953" stroke="white" stroke-width="4" stroke-miterlimit="10"/>
<path d="M640.206 317.076H621.068C617.052 317.076 613.803 313.828 613.803 309.811V233.969C613.803 229.953 617.052 226.704 621.068 226.704H640.206C644.222 226.704 647.471 229.953 647.471 233.969V309.752C647.53 313.769 644.281 317.076 640.206 317.076Z" fill="#272953" stroke="white" stroke-width="4" stroke-miterlimit="10"/>
<path d="M293.146 295.28H263.376C260.836 295.28 258.769 293.213 258.769 290.673V253.107C258.769 250.567 260.836 248.5 263.376 248.5H293.146C295.686 248.5 297.753 250.567 297.753 253.107V290.673C297.753 293.213 295.686 295.28 293.146 295.28Z" fill="#272953" stroke="white" stroke-width="4" stroke-miterlimit="10"/>
<path d="M232.307 226.704H251.444C255.461 226.704 258.71 229.953 258.71 233.969V309.752C258.71 313.769 255.461 317.017 251.444 317.017H232.307C228.29 317.017 225.042 313.769 225.042 309.752V233.969C224.982 229.953 228.29 226.704 232.307 226.704Z" fill="#272953" stroke="white" stroke-width="4" stroke-miterlimit="10"/>
<path d="M438 25V0.5M695 200H768L804 164M169.5 200H96.5L60.5 164" stroke="white" stroke-width="2"/>
</svg>
