<svg width="48" height="31" viewBox="0 0 48 31" fill="none" xmlns="http://www.w3.org/2000/svg">
<path d="M32.2274 30.6703C35.9657 30.6703 39.3904 29.2558 42.0481 27.0181C39.9475 23.752 36.2935 21.625 32.2274 21.625C28.1271 21.625 24.4747 23.712 22.3826 26.9961C25.0438 29.2466 28.4774 30.6703 32.2274 30.6703ZM29.5318 23.4221H34.923V25.2191H29.5318V23.4221Z" fill="white"/>
<path d="M22.3889 16.2334C22.5815 18.3915 23.4707 20.3896 24.9434 21.9943C27.059 20.636 29.5482 19.8275 32.2277 19.8275C34.8886 19.8275 37.3968 20.6217 39.5168 21.9892C40.987 20.3851 41.874 18.3892 42.0664 16.2334H40.3145V14.4363H42.0659C41.8801 12.3851 41.0679 10.5129 39.8184 9.01468L38.5815 10.2516L37.3109 8.98098L38.5478 7.74409C37.0496 6.49457 35.1774 5.68237 33.1262 5.49658V7.24802H31.3291V5.49658C29.2779 5.68237 27.4057 6.49457 25.9075 7.74409L27.1444 8.98098L25.8738 10.2516L24.6369 9.01468C23.3874 10.5129 22.5752 12.3851 22.3894 14.4363H24.1408V16.2334H22.3889ZM33.629 13.0323C34.4398 13.5263 34.9233 14.3872 34.9233 15.3348C34.9233 16.8212 33.714 18.0305 32.2277 18.0305C31.28 18.0305 30.4191 17.547 29.9252 16.7362L26.8233 9.93053L33.629 13.0323Z" fill="white"/>
<path d="M32.2276 0C23.8048 0 16.8926 6.91217 16.8926 15.335C16.8926 19.3595 18.5284 23.0145 21.0811 25.7456C21.7603 24.739 22.5695 23.8414 23.4825 23.062C21.5865 20.927 20.5466 18.2223 20.5466 15.335C20.5466 8.89433 25.7869 3.65405 32.2276 3.65405C38.6683 3.65405 43.9086 8.89433 43.9086 15.335C43.9086 18.2241 42.8673 20.9303 40.9689 23.0659C41.8833 23.8456 42.6911 24.7472 43.3722 25.7477C45.9261 23.0163 47.5626 19.3604 47.5626 15.335C47.5626 6.91217 40.6504 0 32.2276 0Z" fill="white"/>
<path d="M32.2276 16.2333C32.7234 16.2333 33.1261 15.8306 33.1261 15.3347C33.1261 15.0338 32.9796 14.7591 32.7311 14.5906L30.4436 13.5508L31.5099 15.8963C31.6248 16.0718 31.9117 16.2333 32.2276 16.2333Z" fill="white"/>
<path d="M13.3336 15.5012C13.3336 15.0022 12.9291 14.5977 12.43 14.5977H0.903566C0.404556 14.5977 0 15.0022 0 15.5012C0 16.0002 0.404556 16.4048 0.903566 16.4048H12.43C12.9291 16.4048 13.3336 16.0004 13.3336 15.5012Z" fill="white"/>
<path d="M4.50757 11.1426H13.635C14.134 11.1426 14.5386 10.738 14.5386 10.239C14.5386 9.74001 14.134 9.33545 13.635 9.33545H4.50757C4.00856 9.33545 3.604 9.74001 3.604 10.239C3.604 10.738 4.00844 11.1426 4.50757 11.1426Z" fill="white"/>
<path d="M14.8395 4.07324H7.35401C6.855 4.07324 6.45044 4.4778 6.45044 4.97681C6.45044 5.47582 6.855 5.88037 7.35401 5.88037H14.8395C15.3385 5.88037 15.7431 5.47582 15.7431 4.97681C15.7431 4.47768 15.3385 4.07324 14.8395 4.07324Z" fill="white"/>
<path d="M14.5385 20.3557C14.5385 19.8567 14.1339 19.4521 13.6349 19.4521H4.50757C4.00856 19.4521 3.604 19.8567 3.604 20.3557C3.604 20.8547 4.00856 21.2593 4.50757 21.2593H13.635C14.1339 21.2593 14.5385 20.8547 14.5385 20.3557Z" fill="white"/>
<path d="M14.8395 24.7144H7.35401C6.855 24.7144 6.45044 25.1189 6.45044 25.6179C6.45044 26.1169 6.855 26.5215 7.35401 26.5215H14.8395C15.3385 26.5215 15.7431 26.1169 15.7431 25.6179C15.7431 25.1189 15.3385 24.7144 14.8395 24.7144Z" fill="white"/>
</svg>
